# xmcd CD database file generated by Grip 2.96
# 
# Track frame offsets:
#       150
#       26707
#       45645
#       57917
#       74912
#       94942
#       110777
#       124687
#       141690
#       155692
# 
# Disc length: 2363 seconds
# 
# Revision: 0
# Processed by: cddbd v1.4b42PL1 Copyright (c) Steve Scherf et al.
# Submitted via: Grip 2.96
# 
DISCID=a009390a
DTITLE=David Gogo - Bare Bones
DYEAR=1900
DGENRE=
TTITLE0=Halfway to Memphis
TTITLE1=Fine Young Thing
TTITLE2=Aberdeen Mississippi Blues
TTITLE3=Western Coast
TTITLE4=All Over Town
TTITLE5=Shooting Star
TTITLE6=Dallas
TTITLE7=San Diego Serenade
TTITLE8=Crazy Little Thing
TTITLE9=In My Time Of Dying
EXTD=
EXTT0=
EXTT1=
EXTT2=
EXTT3=
EXTT4=
EXTT5=
EXTT6=
EXTT7=
EXTT8=
EXTT9=
PLAYORDER=
